<?xml version="1.0" encoding="UTF-8"?>
<svg id="Layer_2" data-name="Layer 2" xmlns="http://www.w3.org/2000/svg" viewBox="0 0 384.92 494.62">
  <defs>
    <style>
      .cls-1 {
        stroke-width: 22px;
      }

      .cls-1, .cls-2 {
        fill: none;
        stroke: #010101;
        stroke-linecap: round;
        stroke-linejoin: round;
      }

      .cls-2 {
        stroke-width: 14px;
      }
    </style>
  </defs>
  <g id="Camada_1" data-name="Camada 1">
    <g>
      <path class="cls-1" d="M218.92,174.56l-76.35,297.03c-2.2,8.57-10.94,13.73-19.5,11.53h0c-8.57-2.2-13.73-10.94-11.53-19.5L188.82,162.96"/>
      <path class="cls-1" d="M219.74,42.68l5.05-19.64c2.2-8.57,10.94-13.73,19.5-11.53h0c8.57,2.2,13.73,10.94,11.53,19.5l-5.04,19.62"/>
      <path class="cls-2" d="M251.7,239.81c10.46-66.9,4.53-132.21-16.34-193.85-55.41,41.85-88.72,96.46-105.3,162.39"/>
      <path class="cls-1" d="M11,176.29c7.99-31.18,39.22-50.79,71.01-44.08,32.65,6.89,54.94,43.49,48.04,76.15,7.99-31.18,39.22-50.79,71.01-44.08,32.65,6.89,57.53,42.89,50.63,75.54v-.85c7.99-31.18,39.22-50.79,71.01-44.08,32.65,6.89,52.27,42.88,45.37,75.54,.66-2.58,1.27-5.18,1.82-7.81,21.03-99.61-42.67-197.41-142.28-218.45C130.64,23.68,35.37,83.53,11,178.63"/>
    </g>
  </g>
</svg>