<svg xmlns="http://www.w3.org/2000/svg" viewBox="0 0 412.05 409.44"><defs><style>.cls-1{fill:none;stroke:#1d1d1b;stroke-linecap:round;stroke-linejoin:round;stroke-width:16px;}</style></defs><title>purple_PHAtivo 23</title><g id="Camada_2" data-name="Camada 2"><g id="Camada_1-2" data-name="Camada 1"><g id="Camada_71" data-name="Camada 71"><path class="cls-1" d="M67.71,111.9a164.76,164.76,0,0,0-25.52,61.57H25.65A17.7,17.7,0,0,0,8,191.12v27.2A17.7,17.7,0,0,0,25.65,236H42.22v.14a164.53,164.53,0,0,0,25.49,61.43h0L56.63,308.62a17.7,17.7,0,0,0,0,24.95l19.24,19.24a17.7,17.7,0,0,0,24.95,0l11.08-11.08h0a164.5,164.5,0,0,0,61.57,25.52h0V383.8a17.7,17.7,0,0,0,17.65,17.64h27.2A17.7,17.7,0,0,0,236,383.8V367.25h0a164.43,164.43,0,0,0,61.57-25.52h0l11.08,11.08a17.7,17.7,0,0,0,24.95,0l19.24-19.24a17.7,17.7,0,0,0,0-24.95l-11.08-11.08h0A164.43,164.43,0,0,0,367.25,236H386.4a17.7,17.7,0,0,0,17.65-17.65v-27.2a17.7,17.7,0,0,0-17.65-17.65H367.25a164.5,164.5,0,0,0-25.52-61.57h0l11.08-11.08a17.7,17.7,0,0,0,0-24.95L333.57,56.63a17.7,17.7,0,0,0-24.95,0L297.54,67.71h0A164.6,164.6,0,0,0,236,42.19h0V25.65A17.7,17.7,0,0,0,218.32,8h-27.2a17.7,17.7,0,0,0-17.65,17.65V42.19h0A164.67,164.67,0,0,0,111.9,67.71h0L100.82,56.63a17.7,17.7,0,0,0-24.95,0L56.63,75.87a17.7,17.7,0,0,0,0,24.95L67.71,111.9"/><circle class="cls-1" cx="206.02" cy="204.72" r="86.61"/></g></g></g></svg>