<?xml version="1.0" encoding="UTF-8"?>
<svg id="Layer_2" data-name="Layer 2" xmlns="http://www.w3.org/2000/svg" viewBox="0 0 390.68 496.35">
  <defs>
    <style>
      .cls-1 {
        fill: none;
        stroke: #010101;
        stroke-linecap: round;
        stroke-linejoin: round;
        stroke-width: 22px;
      }
    </style>
  </defs>
  <g id="Camada_1" data-name="Camada 1">
    <g>
      <line class="cls-1" x1="379.68" y1="485.35" x2="359.41" y2="184.03"/>
      <path class="cls-1" d="M94.42,326.6l-27.64,67.96-49.49,51.71c-8.77,9.34-8.31,24.02,1.03,32.79h0c9.34,8.77,24.02,8.31,32.79-1.03l48.95-52.11c2.52-2.25,7.97-9.71,9.35-13.03l14.31-34.44"/>
      <circle class="cls-1" cx="215.57" cy="57.59" r="46.58"/>
      <path class="cls-1" d="M200.6,204.27l-44.13,141.33h.01s26.74,26.73,26.74,26.73c4.53,4.53,6.79,10.47,6.79,16.4h-.08c.05,.64,.08,1.28,.08,1.92v71.49c0,12.81-10.39,23.2-23.2,23.2h0c-12.81,0-23.2-10.39-23.2-23.2v-63.81h0s-43.76-43.76-43.76-43.76c-11.88-11.04-6.77-22.37-5.35-28.32l52.98-169.68c5.34-17.11,23.54-26.65,40.66-21.31h0c4.63,1.45,8.71,3.83,12.08,6.89h.71s61.99,65.61,61.99,65.61h76.49c8.58,0,15.53,6.95,15.53,15.53h0c0,8.58-6.95,15.53-15.53,15.53h-97.33c-5.49-2.95-12.59-7.93-16.83-11.38l-24.65-23.18"/>
    </g>
  </g>
</svg>