<?xml version="1.0" encoding="UTF-8"?>
<svg id="Layer_2" data-name="Layer 2" xmlns="http://www.w3.org/2000/svg" viewBox="0 0 390.68 496.79">
  <defs>
    <style>
      .cls-1 {
        fill: none;
        stroke: #000;
        stroke-linecap: round;
        stroke-linejoin: round;
        stroke-width: 22px;
      }
    </style>
  </defs>
  <g id="Camada_1" data-name="Camada 1">
    <g>
      <path class="cls-1" d="M270.72,357.96c-9.34,5.47-17.68,14.07-25.01,25.8h0c-4.6,7.37-8.8,15.97-12.6,25.81h0s-75.55,0-75.55,0c-3.81-17.2-16.34-34.41-37.6-51.61"/>
      <polyline class="cls-1" points="233.11 409.57 11 409.57 11 485.79 379.68 485.79 379.68 409.57 233.11 409.57"/>
      <path class="cls-1" d="M156.22,202.49c11.78,6.75,25.07,10.54,39.12,10.54s27.34-3.8,39.12-10.54c22.98-13.16,40.24-37.56,46.34-66.94h0c.79,.1,1.59,.15,2.4,.15,12.03,0,21.79-10.97,21.79-24.51s-9.75-24.51-21.79-24.51c-.93,0-1.84,.07-2.74,.19h0c-9.72-43.62-44.14-75.88-85.11-75.88S119.95,43.25,110.23,86.88h0c-.9-.13-1.81-.2-2.74-.2-12.03,0-21.79,10.97-21.79,24.51s9.75,24.51,21.79,24.51c.81,0,1.61-.05,2.4-.15h0c6.1,29.38,23.35,53.77,46.33,66.94h0s-17.46,49.29-17.46,49.29l-102.58,45.72,55.19,60.46h207.93s55.19-60.46,55.19-60.46h0s-102.58-45.72-102.58-45.72h0s-17.45-49.29-17.45-49.29"/>
    </g>
  </g>
</svg>