<svg id="Camada_1" data-name="Camada 1" xmlns="http://www.w3.org/2000/svg" xmlns:xlink="http://www.w3.org/1999/xlink" viewBox="0 0 643.15 1083.39"><defs><style>.cls-1,.cls-2,.cls-3,.cls-4,.cls-5{fill:none;stroke-linecap:round;stroke-linejoin:round;stroke-width:12px;}.cls-1{stroke:url(#Gradiente_sem_nome_72);}.cls-2{stroke:url(#Gradiente_sem_nome_78);}.cls-3{stroke:url(#Gradiente_sem_nome_86);}.cls-4{stroke:url(#Gradiente_sem_nome_87);}.cls-5{stroke:url(#Gradiente_sem_nome_75);}</style><linearGradient id="Gradiente_sem_nome_72" x1="305.65" y1="658.45" x2="305.65" y2="116.35" gradientUnits="userSpaceOnUse"><stop offset="0" stop-color="#3973b8"/><stop offset="1" stop-color="#2fb0e1"/></linearGradient><linearGradient id="Gradiente_sem_nome_78" x1="394.43" y1="657.38" x2="394.43" y2="9.53" gradientUnits="userSpaceOnUse"><stop offset="0" stop-color="#3973b8"/><stop offset="1" stop-color="#3cbee9"/></linearGradient><linearGradient id="Gradiente_sem_nome_86" x1="188.88" y1="824.82" x2="188.88" y2="208.73" gradientUnits="userSpaceOnUse"><stop offset="0" stop-color="#415fa8"/><stop offset="1" stop-color="#31a7dd"/></linearGradient><linearGradient id="Gradiente_sem_nome_87" x1="396.85" y1="982.51" x2="396.85" y2="646.45" gradientUnits="userSpaceOnUse"><stop offset="0" stop-color="#454d9b"/><stop offset="1" stop-color="#3973b8"/></linearGradient><linearGradient id="Gradiente_sem_nome_75" x1="286.24" y1="1078.38" x2="286.24" y2="287.73" gradientUnits="userSpaceOnUse"><stop offset="0" stop-color="#463f92"/><stop offset="1" stop-color="#319dd5"/></linearGradient></defs><title>ravenIcon</title><g id="Camada_27" data-name="Camada 27"><path class="cls-1" d="M15.85,217.39c-1.21-6.34,10.65-18.79,31.93-32.64s52-29.11,88.45-41.07,78.71-20.62,123.08-21.28,90.86,6.66,135.83,26.68a333,333,0,0,1,76,47.11,354.66,354.66,0,0,1,59,62,351,351,0,0,1,40.73,70.12,285.91,285.91,0,0,1,24.44,106.1,302.16,302.16,0,0,1-.77,35.28,313.75,313.75,0,0,1-5,35.87,334.22,334.22,0,0,1-9.34,36.25c-2.41,7.57-5,14.69-7.68,21.18s-5.29,12.36-7.71,17.42-4.63,9.31-6.38,12.56-3.05,5.52-3.67,6.6c-2.4,4.17-6.09,10-10.25,16.32s-8.77,13-13,19-8.17,11.15-10.9,14.32-4.29,4.3-3.84,2.19c7.42-35.23,11.53-70.69,11.33-105.59s-4.69-69.21-14.46-102.16a308.75,308.75,0,0,0-46.08-93.93c-21.28-29.4-48.8-56.63-83.54-80.88-36.15-25.23-76.92-39.4-117.82-46.88s-81.92-8.26-118.58-6.71-69,5.4-92.43,7.22S17.12,224,15.85,217.39Z"/><path class="cls-2" d="M163,135.83c23.63-43.4,51.55-73.48,84.52-92.7s71-27.6,114.86-27.6c72.77,0,138.64,39.31,186.32,102.86s77.18,151.36,77.19,248.35c0,58.55-10.75,113.76-29.76,162.3s-46.3,90.43-79.35,122.34"/><path class="cls-3" d="M163,214.73c40.12,0,69.69,11,86.11,31.38s19.7,50,7.23,87.34l29.29-49.52,29.3-49.52L196.31,434.92,77.69,635.44C63.79,664,60,701.91,64.86,736.62s18.42,66.26,39.2,82.2"/><path class="cls-4" d="M289.79,805.39c-13.91,28.59-15.85,63.4-9.12,95.05s22.12,60.13,42.9,76.07l96.6-162,96.6-162"/><path class="cls-5" d="M416,293.73,70.43,878.78l.09,0C42.7,936,90.81,1040.51,132.36,1072.38L510.2,432.73"/></g></svg>